# xmcd CD database file
#
# Track frame offsets:
#	150
#	13326
#	30348
#	45107
#	59539
#	77901
#	91598
#	120395
#	134455
#	154196
#	168481
#	182525
#	208900
#	240442
#
# Disc length: 3353 seconds
#
# Revision: 0
# Processed by: cddbd v1.5.2PL0 Copyright (c) Steve Scherf et al.
# Submitted via: CDex 1.70beta2
#
DISCID=aa0d170e
DTITLE=Various Artist - Jazz from the Vaults CD3
DYEAR=2005
DGENRE=Jazz
TTITLE0=Billie Holiday - God Bless The Child
TTITLE1=Chet Baker - Lime For Lyons (live)
TTITLE2=Dave Brubeck - These Foolish Things
TTITLE3=Duke Ellington - Cottontail
TTITLE4=Lester Young - Lady Be good
TTITLE5=Louis Armstrong - A Kiss To Build a Dream On
TTITLE6=Miles Davis - No Blues
TTITLE7=Oscar Peterson - I Get A Kick Out Of You
TTITLE8=Stan Getz - When the World Was Young
TTITLE9=Thelonius Monk - Round Midnight
TTITLE10=Bessie Smith - Black Mountain Blues
TTITLE11=Charlie Christian - Up On Teddy's Hill
TTITLE12=Eric Dolphy - Jitterburg Waltz
TTITLE13=King Oliver and His Creole Jazz Band - Dippermouth Blues
EXTD=YEAR: 2005
EXTT0=
EXTT1=
EXTT2=
EXTT3=
EXTT4=
EXTT5=
EXTT6=
EXTT7=
EXTT8=
EXTT9=
EXTT10=
EXTT11=
EXTT12=
EXTT13=
PLAYORDER=
